# xmcd CD database file
#
# Track frame offsets:
#	182
#	12660
#	26377
#	38105
#	49015
#	61920
#	72630
#	83967
#	95060
#	105840
#	116747
#	130587
#	143070
#	156197
#	168037
#	178127
#	189240
#	202452
#	215355
#	228950
#	240545
#	253312
#
# Disc length: 3506 seconds
#
# Revision: 0
# Processed by: cddbd v1.4PL0 Copyright (c) Steve Scherf et al.
# Submitted via: CDex 1.40Beta9
#
DISCID=350db016
DTITLE=Patsy Cline - The Patsy Cline Showcase
DYEAR=1900
DGENRE=Country
TTITLE0=Crazy
TTITLE1=She's Got You
TTITLE2=Walkin' After Midnight
TTITLE3=Honky Tonk Merry Go Round
TTITLE4=I Fall To Pieces
TTITLE5=San Antonio Rose
TTITLE6=Half As Much
TTITLE7=Shoes
TTITLE8=Stop, Look And Listen
TTITLE9=Gotta Lot Of Rythm In My Soul
TTITLE10=A Church, A Courtroom And Then Goodbye
TTITLE11=A Poor Man's Roses (Or A Rich Man's Gold)
TTITLE12=Life's Railway To Heaven
TTITLE13=Never No More
TTITLE14=Foolin' Around
TTITLE15=Leavin On Your Mind
TTITLE16=Imagine That
TTITLE17=When You Need A Laugh
TTITLE18=You Took Him Of My Hands
TTITLE19=Lonely Street
TTITLE20=Bill Bailey, Won't You Please Come Home
TTITLE21=Blue Moon Of Kentucky
EXTD=ID3G: 2
EXTT0=
EXTT1=
EXTT2=
EXTT3=
EXTT4=
EXTT5=
EXTT6=
EXTT7=
EXTT8=
EXTT9=
EXTT10=
EXTT11=
EXTT12=
EXTT13=
EXTT14=
EXTT15=
EXTT16=
EXTT17=
EXTT18=
EXTT19=
EXTT20=
EXTT21=
PLAYORDER=
